<mxfile host="Electron" agent="Mozilla/5.0 (Windows NT 10.0; Win64; x64) AppleWebKit/537.36 (KHTML, like Gecko) draw.io/28.1.2 Chrome/138.0.7204.243 Electron/37.4.0 Safari/537.36" version="28.1.2">
  <diagram name="Page-1" id="1URPtQQXv8WwftWLJilQ">
    <mxGraphModel dx="983" dy="580" grid="0" gridSize="10" guides="1" tooltips="1" connect="1" arrows="1" fold="1" page="0" pageScale="1" pageWidth="850" pageHeight="1100" math="0" shadow="0">
      <root>
        <mxCell id="0" />
        <mxCell id="1" parent="0" />
        <mxCell id="cHiBQgeAXn98yEnolh68-13" value="" style="rounded=1;whiteSpace=wrap;html=1;dashed=1;dashPattern=8 8;fillColor=none;" vertex="1" parent="1">
          <mxGeometry x="360" y="140" width="520" height="260" as="geometry" />
        </mxCell>
        <mxCell id="cHiBQgeAXn98yEnolh68-3" value="retrieves CTI Json on trigger" style="edgeStyle=orthogonalEdgeStyle;rounded=0;orthogonalLoop=1;jettySize=auto;html=1;" edge="1" parent="1" source="MJClQaRJfXR5vfHBb9vm-1" target="cHiBQgeAXn98yEnolh68-2">
          <mxGeometry relative="1" as="geometry" />
        </mxCell>
        <mxCell id="MJClQaRJfXR5vfHBb9vm-1" value="S3 Store" style="rounded=0;whiteSpace=wrap;html=1;fillColor=none;" parent="1" vertex="1">
          <mxGeometry x="150" y="180.84" width="120" height="60" as="geometry" />
        </mxCell>
        <mxCell id="cHiBQgeAXn98yEnolh68-5" value="sends CTI Json" style="edgeStyle=orthogonalEdgeStyle;rounded=0;orthogonalLoop=1;jettySize=auto;html=1;" edge="1" parent="1" source="cHiBQgeAXn98yEnolh68-2" target="cHiBQgeAXn98yEnolh68-4">
          <mxGeometry relative="1" as="geometry" />
        </mxCell>
        <mxCell id="cHiBQgeAXn98yEnolh68-8" value="stores vector&amp;nbsp;&lt;div&gt;embeddings&amp;nbsp;&lt;div&gt;for query&lt;/div&gt;&lt;/div&gt;" style="edgeStyle=orthogonalEdgeStyle;rounded=0;orthogonalLoop=1;jettySize=auto;html=1;" edge="1" parent="1" source="cHiBQgeAXn98yEnolh68-2" target="cHiBQgeAXn98yEnolh68-7">
          <mxGeometry y="-40" relative="1" as="geometry">
            <Array as="points">
              <mxPoint x="480" y="290" />
              <mxPoint x="480" y="290" />
            </Array>
            <mxPoint as="offset" />
          </mxGeometry>
        </mxCell>
        <mxCell id="cHiBQgeAXn98yEnolh68-11" value="&amp;nbsp;gets similar&amp;nbsp;&lt;div&gt;historical records&amp;nbsp;&lt;/div&gt;&lt;div&gt;for RAG&amp;nbsp;&lt;/div&gt;&lt;div&gt;LLM-enabled answers&lt;/div&gt;" style="edgeStyle=orthogonalEdgeStyle;rounded=0;orthogonalLoop=1;jettySize=auto;html=1;" edge="1" parent="1" source="cHiBQgeAXn98yEnolh68-2" target="cHiBQgeAXn98yEnolh68-10">
          <mxGeometry y="-60" relative="1" as="geometry">
            <Array as="points">
              <mxPoint x="530" y="140" />
              <mxPoint x="530" y="140" />
            </Array>
            <mxPoint as="offset" />
          </mxGeometry>
        </mxCell>
        <mxCell id="cHiBQgeAXn98yEnolh68-2" value="Orchestrator" style="rounded=0;whiteSpace=wrap;html=1;fillColor=none;" vertex="1" parent="1">
          <mxGeometry x="440" y="180" width="120" height="60" as="geometry" />
        </mxCell>
        <mxCell id="cHiBQgeAXn98yEnolh68-4" value="Embedding Model" style="rounded=0;whiteSpace=wrap;html=1;fillColor=none;" vertex="1" parent="1">
          <mxGeometry x="710" y="180" width="120" height="60" as="geometry" />
        </mxCell>
        <mxCell id="cHiBQgeAXn98yEnolh68-6" value="returns embeddings" style="edgeStyle=orthogonalEdgeStyle;rounded=0;orthogonalLoop=1;jettySize=auto;html=1;" edge="1" parent="1" source="cHiBQgeAXn98yEnolh68-4" target="cHiBQgeAXn98yEnolh68-2">
          <mxGeometry relative="1" as="geometry">
            <mxPoint x="660" y="260" as="sourcePoint" />
            <mxPoint x="810" y="260" as="targetPoint" />
            <Array as="points">
              <mxPoint x="640" y="230" />
              <mxPoint x="640" y="230" />
            </Array>
          </mxGeometry>
        </mxCell>
        <mxCell id="cHiBQgeAXn98yEnolh68-7" value="Qdrant" style="rounded=0;whiteSpace=wrap;html=1;fillColor=none;" vertex="1" parent="1">
          <mxGeometry x="440" y="320" width="120" height="60" as="geometry" />
        </mxCell>
        <mxCell id="cHiBQgeAXn98yEnolh68-9" value="retrieves and&amp;nbsp;&lt;div&gt;compares&lt;span style=&quot;background-color: light-dark(#ffffff, var(--ge-dark-color, #121212)); color: light-dark(rgb(0, 0, 0), rgb(255, 255, 255));&quot;&gt;&amp;nbsp;vector&amp;nbsp;&lt;/span&gt;&lt;div&gt;&lt;div&gt;embeddings&amp;nbsp;&lt;div&gt;for query&lt;/div&gt;&lt;/div&gt;&lt;/div&gt;&lt;/div&gt;" style="edgeStyle=orthogonalEdgeStyle;rounded=0;orthogonalLoop=1;jettySize=auto;html=1;exitX=0.667;exitY=-0.04;exitDx=0;exitDy=0;exitPerimeter=0;" edge="1" parent="1" source="cHiBQgeAXn98yEnolh68-7" target="cHiBQgeAXn98yEnolh68-2">
          <mxGeometry x="0.0082" y="-43" relative="1" as="geometry">
            <mxPoint x="540" y="310" as="sourcePoint" />
            <mxPoint x="540" y="390" as="targetPoint" />
            <Array as="points">
              <mxPoint x="517" y="318" />
            </Array>
            <mxPoint as="offset" />
          </mxGeometry>
        </mxCell>
        <mxCell id="cHiBQgeAXn98yEnolh68-10" value="Agent C" style="rounded=0;whiteSpace=wrap;html=1;fillColor=none;" vertex="1" parent="1">
          <mxGeometry x="440" y="60" width="120" height="60" as="geometry" />
        </mxCell>
        <mxCell id="cHiBQgeAXn98yEnolh68-12" value="sends query&amp;nbsp;" style="edgeStyle=orthogonalEdgeStyle;rounded=0;orthogonalLoop=1;jettySize=auto;html=1;entryX=0.29;entryY=0.024;entryDx=0;entryDy=0;entryPerimeter=0;" edge="1" parent="1" source="cHiBQgeAXn98yEnolh68-10" target="cHiBQgeAXn98yEnolh68-2">
          <mxGeometry x="0.3093" y="-35" relative="1" as="geometry">
            <mxPoint x="520" y="200" as="sourcePoint" />
            <mxPoint x="520" y="140" as="targetPoint" />
            <Array as="points">
              <mxPoint x="475" y="150" />
              <mxPoint x="475" y="150" />
            </Array>
            <mxPoint as="offset" />
          </mxGeometry>
        </mxCell>
        <mxCell id="cHiBQgeAXn98yEnolh68-16" value="Agent D" style="rounded=0;whiteSpace=wrap;html=1;fillColor=none;" vertex="1" parent="1">
          <mxGeometry x="710" y="60" width="120" height="60" as="geometry" />
        </mxCell>
        <mxCell id="cHiBQgeAXn98yEnolh68-17" value="future feedback loop" style="edgeStyle=orthogonalEdgeStyle;rounded=0;orthogonalLoop=1;jettySize=auto;html=1;exitX=0.5;exitY=1;exitDx=0;exitDy=0;dashed=1;" edge="1" parent="1" source="cHiBQgeAXn98yEnolh68-16">
          <mxGeometry x="-0.9254" y="60" relative="1" as="geometry">
            <mxPoint x="560" y="250" as="sourcePoint" />
            <mxPoint x="560" y="190" as="targetPoint" />
            <Array as="points">
              <mxPoint x="770" y="160" />
              <mxPoint x="690" y="160" />
              <mxPoint x="690" y="190" />
            </Array>
            <mxPoint as="offset" />
          </mxGeometry>
        </mxCell>
        <mxCell id="cHiBQgeAXn98yEnolh68-18" value="&lt;h1 style=&quot;margin-top: 0px;&quot;&gt;Agent B (HEVA)&lt;/h1&gt;&lt;p&gt;Historical evidence store and retrieval layer, enabling downstream agents&amp;nbsp;&lt;span style=&quot;background-color: transparent; color: light-dark(rgb(0, 0, 0), rgb(255, 255, 255));&quot;&gt;to access enriched CTI records for risk triage&amp;nbsp;&lt;/span&gt;&lt;/p&gt;" style="text;html=1;whiteSpace=wrap;overflow=hidden;rounded=0;" vertex="1" parent="1">
          <mxGeometry x="650" y="260" width="210" height="120" as="geometry" />
        </mxCell>
        <mxCell id="cHiBQgeAXn98yEnolh68-19" value="" style="shape=image;verticalLabelPosition=bottom;labelBackgroundColor=default;verticalAlign=top;aspect=fixed;imageAspect=0;image=data:image/png,iVBORw0KGgoAAAANSUhEUgAAAE4AAABWCAYAAABhL6DrAAAAAXNSR0IArs4c6QAAAARnQU1BAACxjwv8YQUAAAAJcEhZcwAADsMAAA7DAcdvqGQAABC2SURBVHhe7Zx7cBx3fcA/+7rH7t3pTi9LlmRJfkh27MRO7DgPQyClDTBNDEl5hLbMAFNKS2kLYWibaYdmpkOnM6UlHSABSiFTKDOEYaCBpiFAiJOQF4kjB0uKJdmyJcuSJUs63e29d/fXP6Q7pIsd3+6tHTroM7N/aH97u/f73Pf33N9PkhBCsI5r5OoT69TGujiPrIvzyLo4j0i/jo2DJQSWY685p8oKqiStOfd68mshLl0qMmmmmUgnOWuazOUypIoFco4DQFiWiQWCtIQNNkQibIrG6YpEiWqB6ltdNl43caligVcW53lofJRHpyeZy2cpFIvYto218pVkWQHAWYk+VZJQFIVgIEBLSOeW9i4O9m5je6KJWCC45v6XmssqznIcTmfS/GjiBN8eGeSZ2WlkWUZZEeQW27FxHIcbWtt5b99ODvZso1U3UC5Dkb4s4gq2xaSZ5sHRIe4bOUoql8OyLVRFrb7UE5ZtAbAhFueuK67m7d2b6YpECfp0//NxScUJYC6b4dDUKb5xbJBn56bJ2TbSJYoIIQRhReH6lnZ+f9sObu7sodWIcCmedknFHVta4HMvv8CTp08ymc1WJ19S2oJB3rxpM5/cfS39DY3VyXVzycT978lRvjB0hEMzU0iO4znKHEDIMspKC1srQgiELPOmtg4+dsVu3t6zrfqSuvBdnC0ED4+P8nfPP8F4xqxOdoUjHK5sbMYuWYxm0tgev2qvEeEz193Erb191Ume8XXkYAvBQydGuPu5Q3VLA0BWONDRTX+iBdljxAKMZ0z+5tlDfP/4Mc/yq/FNnCUcHpsc5x8P/5xTPkgTQrA30cjvdnQz51gU68zwqYzJZw7/nMcmx7GEu2J/PnwR5wjB0OI8nx8cYHgp6bk+W01AUbixo4et8UZfMipJEsNLST4/OMDgwjxOnT+EL+LOZjPcf/QlfjY9iSzVf0sZ2N3YxHt7t1G0HQqWBXVmFECWZB6bnuBLg4c5m81UJ7ui7lwKIfjB+CjfPzGC5EPmAEKKwrt6+9nV3ErOtrAdy7e+mOQIHj45xg/HR6mnXaxb3LGlRf5t6DCmVapO8kx/Q4KDvdtQJZlCqYhV8u/ekiSxUCxy7/AAx5YWq5Nrpi5xlhB8ffAlxpP+1GsAtqLwid372RiJAVAUDpZj1xUd1UiSxHhygS8efoactTxcc0td4saXknxxZBBV8TZIr8ayLd7b0cPB3m2V7kcynyPvMXOvhSorfH1smKPzc9VJNeFZnC0E//riUzjFYnWSZ2LBEB/dva8izRaCrGVVppn8xhHwH0df8NS38yzueCrJT2enUVV/ZiAUIfjojqu4pqVtzXmzWKJkr50N9gtVVfnx7AzHU8nqpIviSVzRsfnpxDipgj/RJoRgR0Oc27dsXzNCsIXDfDFHwRG+1aHVZAoFfjoxTrFqqv5ieBKXLhR4cnaKgg8dUwAhSbytt4/eWLw6ibligYKHolQrBcfhiZkp0oVCddJr4lqcEIIpM8WJpUUslzMWF+LG1jYO9mzFULU1521HkC4WKbmMBjdYwmE8tcCUmXLVcnsSdyqVZCmf86U3H9U0buveyvZE06uKo0Bg25arDLlGCBZyWUYWzrl6jitxQggsy2J4cZ5kqfSqjLpFCMG+5g3c1ruN0HmmufMli6xVwlYULFWt6bBddo0kSSJt25xIL+G4KEGu5uOEEKSLBT71/BN8a2So7mFQSzDIP+2/iXf37axOAiBnWUxlTDLWxRshCThrmnz6ucf55VISWa49JkKSzB/17+LufQeIBAI1BUTtd18hmy+QybmrSM+HBOzZ0MGNGzdVJ1UIqypbG+Lsbmq96LE90cSEmWLCNF1JA8gLh9P5LJli7fly9wQg61gUfRh0hzWVj/TvoiMSrU7yxJRpct/giyw57kcZAjDzedKFfHXSBXElTghBoViiWOeg23ZsDvb08YaNXdVJnvnu2BDDyUVP01oS4DgOlu3U3EC4ekqtN70Y3UaUP7tiD3pV98MrL8/Pcf/wEc8vtr3gSly50rQlCa8KLdviz6+6ll1NLdVJnsjZFp8feI7pjFlTpe4XrsQ5jkNQUQh6/GVtx2Z7Q4I7Nvf5skxBAE9PT/HwmYm6VgUIQFVUNAnsGsfFrsQJIQhLMg2ahuyheVAVlQ/s2IMQgrlc9qLHQj5H4TUyMmWm+PLRw2TrrHNlJBo0DUPRam6RXfXjHMchlUpx78BzfGl8hKzLoVBMVrihrYNooLblWS26wR/07eKq8xRry3F44NhR/uGFp1isc2pLlxX+pLePj++5jlgsVpM81+IymQzfGDrCP78ywLyHCUbHcRC11JACdiUa+ZcDb+EN5+nrjS4t8pdP/YQnZ6Y8xP5amlSVT23fw/uv2I1hGDWJu/gV56HHiBFTNU+tbHlZ18UOWZaJBAJEz7PuLVMq8dCpMQbmZ+uWJoQgpmr0GMtT9bXiSpwkSWiaRmckQiSsgw8V/GvREAjTEAitOSeAE6kkj546TqrOIgqAJBEJ63RGImiaVnPL7EocK/I26AY3RxMYHlvXWtFkGa2q2GRLJR6eOM6zZ6frWhZRxpAVbo4m2KAbNUvDrThpZSlpQAuwO9ZIsIa6oB5iwQCx4NqiOmGmeHBk0NN7gvMRlGV2xxoJaLUN7su4zrksyyiKwv62DtqNiKd6rlYUWVnT3yvYNv81Msioma6pAr8YQgg2GhH2t3WgKAqqqtYsz/XTJUkiEAgQDod5/4YuX9Z1nBdZRlG1NcXx6elJvjVydM1l9WAh+GDXFsLhMIEap5PKuBYHVH6dN27o4OrIq98T+EFQlolrvxI3n8vy5aMvMZuvfQbjYuxvbOX6RAuqqqK4nAB1La5SzwUCxENhPtLbj+NDsakmgESztly/2ULwPyfHeHL2jC9FFMCRZT7ctZV4aDnaFEW59BEnyzLBYBBd17km3sydjWvfhdaLEAJDVdioGyiSzEQ6xReHB0jXObRazZ2NbeyOxtF1nWAw6PoHcXf1KhRFIRwO06DrvK+zl70uO5AXQ5NlooEAiiTxwPARRhfnqy/xzF4jxvs6e2nQdcLhsOtiSj3iZFkmEAig6zqbEo0cbGqjTfNnfg1AUxTCWoAj87M8Mj1Jqe4xwjJtmrb8XY0Iuq4TCARcRxv1iGMl6iKRCDEjwps3buLW5k6MOqZ3ykiSREhR0YAHR4cZTy74oi2iqBxs7uTNGzfRnGjEMAxP0Ua94spRZxgGTdEYt7d3cXtTG7oP8lQtwMjSEo9PT3heirUaXVF5Z1Mb72jvoikawzAMNK32aaRqvH1qFWV5kUiEzniC97R3c0dTO2odwzEBzBfy/PDkGKM+rClWZYU7mtp5T3s3nfEEkUiEQCBQ14IhV9NKF8JxHIrFIplMhmQyyZnkIv89Pcn3z00xu7LPyi2qohCQJLJ1RlurovLO5g7e0d7FxniCeDyOYRie67YyvoijSt7i4iILqRQvLszy5ZmTnHDx2s1PNgdDfKSth72NrTTGYsTj8Uq01SMNP8Wx0v8qy1tYWCBjmkybab4yc5IfLc3jvfC6wwbe2tDEH7f10B6JYkQiNDYuNwZuh1YXwldxrEReqVQik8lUiu5CJsPjC7M8lDzLdLFAxrZqmQN2TVRR6Q2Gub2xjX0NTTQaRqVo1tsYVOO7OFbk2baNaZrkcjlM0ySbzTKbz/Hi0jkeWZxjpphn0bLI1zlJEJJkEqpKczDMW2NNXBNL0GlE0XWdSCRCOBxG13VfpXGpxLFKXqlUwjRNTNMkn89TKBSYy+cYTicZzKYZL2RJ2SXOlYosWDb2RWJRQSKmKCRUjRYtQG9QZ6ceZUc0TiIYxAiFCYVCRCKRNfWZn9K4lOJYqfPK9V6hUCCbzZLL5SoCc1aJ+UKBc4UcU8U881aJeavIYqmIg6CwatlVSFZo1AI0qQHiisqGQJCOkEFTMEhY1QgGg4RCoUqEBYNBXxqBC3FJxZURQlTqvrJAy7IoFAoU8nmKpRIlx8YRYBbz5O3lN2GrZ3kVSSKsKEQCIWQJNFkhoGkEQyGCwSCqqlaElYulH43Ahbgs4sqsFmhZFrZtk8vlKJVK2LZNsVisdGvORzmCytNAmqZVBumqql4WYWUuq7hqLMvCcZxKfZjP5yvFu3ywMnZdfYRCIRRl+RViWZTXMadXXldxZcqSHOdXy6zKf7MyrCtHUVlQWeLrxa+FuP+PXJom5zcAXyPOEYLq7qy00iL6iVgpytUvpMXK+4kyiiRV5vEu9Bmv+CbOFoInTp/kK8MvM10qIgBZkjjQ2MJfXLWPVt2o/shrIoCZrIntOLQb0Yp8RwgemzrFA0NH+OSe/Vzd2g4rq5e+MXSEB068AooKQtAVDPO3+26kP97I07NneOjUCe7adTVteqTqae7xrahKQKqQpyOs89n9b+Qrb/ht7j/wFj68cw/xULhynSUExfPsJ6g+X7Jtfjwxzg/Gx8it2kRslkocmpniqXMzDCcXKK18xhGChXyWvY0tfO2Nt/CFA7/F9niCv3/mEFmrhOQI0rnMa663c4Nv4spEAxodukFfQ4L+hgTd0QYCssxcLsvXBgf44KMP8YlDj/Do5DiW4+AIwbNnJrj7iUf4w0e+x1df/gWL+RyDC3P85+gQXxs5yn2/fJF0ablvl8znyGdNPrb9Kk4uzDG/am+9Jsu06wZbYg1cmWjmT6/cy6HkHIuFPJK0PFzzC9/FTWezHJk/xy9mp3lhdpozZhpLOPx8epIzWZO7rrmOd/ft4uPPPs7hueUtj98ae4UrN3Ty6etv4mhykcNnp+iNxbmlo5tbN23m9i3b0VUVAQwl5xGyyju37GDethlJJSv/0UEIQclxKNo2Octi0kwRU9RX7RHzA9/FjaWX+N6JY3z72CAPjgwxcG4GVZJ508ZNvGvrjuWLhMPGYJCpTJqSbVMSDmaphCMEf7X3BvZv3ERY1WgK6bSEdDqMCIokU7RtHj99kq5ojKZQEEuCgXNnK8W14NgcnjvLd8aG+ffhl7n3pef5QM9WooEgtuNLVV7Bd3HXNrVw155ruXvfjfz13hu4qaObomPz1Ow03xwd4mdTExyeXf6vXkXbpjvWwO90b+G0ucR3x17hs0cPM7lq463l2DgrmZ7OmPxk+jSn0ym+OniERTPDk6dPkVrZEVNuQ7OWRUHY3LhxEx/adQ2KJFXk+oXv4kKqRoMWpDms0xzWiWgBFvN5Dp0+RXvY4I7N/dzZfyVbQ8utrBCC65vb+Oiua3j31h2k8jm++crRysZbVVaQ5WUhj546Tl8szps6u7myuYXberdhCcHQ4jkAgorC/g3tfOiK3Xxi114+vHM37YY/O3eq8U2cUzWbsZqQqiKpCmcyKWYyab4zNsQzi8v/ROD40iKfG3iep2emyFglzqSW6IknCCsqYVVhYG6aZ2emmM1m+O6JY3ygfxdv27SZW7o2847NfRxo7+SxyZMA2I5DzrJQJAlV9rIuvnaUe+65557qk17JOQ66qrEt3kho1au3kKLSE4nx8uwZfnLqOP2xBNe1d3FV0wZ2NDYT1lR+fHKMJybH+b1tO7mzbycBRaEtbHAul2VsKUmrrqPIMm/v3lLZ4afIMq26wZmMydWt7RQRdEVjbI4l1nwvpOUNvaoksz3RhO7DigPfOsC/afhWVH/TWBfnkXVxHlkX55F1cR5ZF+eRdXEeWRfnkXVxHvk/JTeaVi7fh+8AAAAASUVORK5CYII=;" vertex="1" parent="1">
          <mxGeometry x="541.86" y="220" width="18.14" height="20" as="geometry" />
        </mxCell>
        <mxCell id="cHiBQgeAXn98yEnolh68-20" value="" style="shape=image;verticalLabelPosition=bottom;labelBackgroundColor=default;verticalAlign=top;aspect=fixed;imageAspect=0;image=data:image/png,iVBORw0KGgoAAAANSUhEUgAAAK0AAACVCAYAAAAqhnqDAAAAAXNSR0IArs4c6QAAAARnQU1BAACxjwv8YQUAAAAJcEhZcwAADsMAAA7DAcdvqGQAACkrSURBVHhe7Z13eBTXvfc/M7O7mpW06gUJCdGbKMYUg03HgHFMcI9J7MSx49y8N9zYcZz33pDrOBDiJ8DzxDZOAb92iuMS3IMLYOPgUG2akEwTIIQo6m1X0vaZ8/4haaJdFSSKrTXz4TnPg/b8ztmZ2e+c8ju/OSMJIQQmlwWfz8fpXZ+Q/+qfkarKyU1KIXXwMGJuXkT02Enh5iYXiWSK9tIJBAKczd/Pp7//LdVHDqBLVhKibExMTSXeagNJxzZmPHF3fAt1yMjw4iY9xBTtRSJ0naDfR9mJ4+z9f09TvHUzlmgHkmxBQItoU4i3WBGACPgBnejrZxL/jfuxpKYj2aLCqzXpBqZoe4iu67iddZTl7eHkzk84+o83QAgUm92w6Ui0BkE/2KKImTWX6CmzseX0R46Na2thcgFM0faAprpqzuz9jJOffEjJjk/wNzpRomLCzboWbatNwIscl0j0pOtRJ16PfdQ4pCg13MykA0zRdgOfz8fp3f+i4NW/UFNchKe+Dlm2gCSFm0I3RQuAEIBASUjANng40XO/RvTYieFWJmGYou2CgNfDmbw97P7D09SdPIwuLM2SlORw0xC6LdpWhABJQlLANjSX6DvvI2rICKxWa7iliSna9gghCPp9lJ84zt7nn6H4n5tR7DFIsiXctFN6LNq26BoIDfsNM4m/6zvNEzarLdzqqsYUbRjnjx4i/+9/4tiGt0CWQyZY3eWSRNtK0A+yhZg583HcfDvWrJxwi6uWrvu5q5BDb/+dI2++hKLGXJRgLxsWG8gyDe+9ieuDN8Nzr2pM0XaAHOUI/+hLQ4r6Em+cXoopWpOIwxStScRhitYk4jBFaxJxmKI1iThM0ZpEHKZoTSIOU7QmEYcpWpOII6JE62t0UZG3B3/ZWQJeT3i2SQ8JeD3UlJyiPG8PPp8vPLvXEhEBM4FAgLN5e/n02ZXE1VYyrm82clIa9lFjUMdORBs4lJiY9sHYF8PmJ/+Xw2++imK7+IDsyxIw04IIBoiZu4Dk7z8annVRNDU1UXEoj9O7/kXp/j00lRWRG5fC4NHjSbznfqJGjg4v0uvo1aLVAn4qjh5i9/PPUvzPTVhi4hkYH8+ElBQ0TUPoGgS8IIFt5LXYJ04hathIbDmDkGw2JFkBWQI6DtbuiK+GaAVCF+iahub3UXvmFKf3fcrJjz+k/NNNgIxkT0KxqeiSxMTUVAbFRBMM+Ii+bjq2u76NIzsHydL9cMwvkl4nWiEEHpeTisIjHHztLxR/vBlkBcVmRxM6g+PimkUbdthCCzbHoupB5PgkbP0HEzX2WmzZ/VFS0pEdcSiOuAvGpkaqaP3uJvweD57aahrLS6k8cYQz+z+j4vDneGvKkWQJ2RqDbA19mFITOhNTU+kfG9v8QdAPskLM9BuJnf91LH0ykWN7TwARvU20WiDA2YN7OfLeWxR99D4BjxtFbbmYLRe4M9GGoOsIIUDzISkWlLQMrFnZ2AYMRemTiZKcirVPJkpiCpKihBSNFNHqWpCGinLqzp+hsbycquOHaCg/Q0XhCRpOlyB0L7Iag6RYugxgbyfaFkTAixybQMyUaUTPmk/UoGEQdq2+LHqVaP1Njez43W84+OpfUNS4ds9gdVu04QgBehAkBckejeyIxZKUjJKQiGXQMNRBI5CyslFi49iy8oleKdqEBx/G7ayjtvgkFUc+p7JgF001dTTU1OF1NRJoqAcRRLLYm4dF3aQz0ULLddP8OBbeSfzd9yOpvSNMsveJ9tkV5L/+KrKt/UW8aNGGI/SWhwoBqw3ZZkFyxGHtN4CteQcoPXkSqZOHFrvD5RStAngyMvhctlFTeBBfQwNaUEILeFvG6gqSfPFOoC5FC6AFiL3p68QvfhDZHh2e+6Vw8WcbyUgyyEpz0jR0jw+tsgrPZ7uxlpdfkmAvNxpQduI4xds+prHaRcAn0DUdSbYhydZLEmykcvWdcRcoFkuvEqyBJEEX49KrDVO0VwCp2amEDL3zJohwTNFeZjQhqA9onGrwsK2sms9ra6n1N682yZKELEk98BqbdIQp2ktEAG5do9Tjp8jl5ZTLS1mTn/ONXg5UO3mnpIIXjpXw15MlfHC2lBMuF35dR5EkFLMVvihM0fYQXQiCQqfaF+SEy8uhWjdF9T5qPEHcQR2vJgjqAtHS6gZ1gTuocdrlZmd5Hc8dLWFF3jF+d/QE28srqPH5mn0AkoTFFHG3MEXbAaIlaULg0wUeTachGORsk49Cp5ejdc2tqTeohxftEossEW1RkCWJSneAd89U8dTnRaz+vJC/F5Wwu6qGMo+Her8fr6Y175YUXomJKdpwFBmaNI0qr59St59TLi8nnV5Ou/zU+zSC+qV4XUNRFRmrLNEU0MmvbeSd02W8cKyEV4rOsPFsOZ9V1XCk3oXT7w9fZ7mqMUXbBiEEAxwOrktJYXxyMkPi4hjgsJOoWrDKEkKAX9fRL2VhoxOssoRNlrHIEp6gztmmJgrq6jlQU0NJQxPm9O3fmKJtgwASrDaGx8cxMTWJ+X3TuK1/X+4bnMMDw/pz16BM5melkZsYQ6q9eUdDr6bj1fSLWqGzW2QSVQuZsVYGxNkYHK+S44giK8ZGZrSNlCgLdkUmoPdsGPJV5+pcxr1IWidMrQSFoNLr4bzbTWF9I+eafDQFNNxBDUtLy9mKLEGsVUG1yMTbZNQexAdcScxl3K84okWorQkgXbUzITmFbw3qz09HD+WR0YNYkjuA2ZnJ9HNEMSxBZWSiSm5iNDmxUaSr1l4j2EjFFO0l0upl0ESzmyveaqN/bCwT05LJibVjk2WUC2zCbNIzzKt5BWidqLW6zkwuL6ZoTSIOU7QmEYcpWpOIwxTtZaA5FPHfSbQsVEiAQKC3SeYY99IxRdtDWsML5RZ/rS4ErmCAKp+Ps+4mjrtcHHM6OdPYRL/YGIYlxDMkPo5BcQ7S7XYcViuyJKELEZJMuo+5uNABrQsIQgha16KcwQCeQBCPFqQxEMDpDxDUmyO+AkKg6wJN6AgkEIJYm5WJKcnEWKyIFneY3uIaCwidoN68iub0B3BrQTwBjcZAAFcg0Nw6tzm/K+kyi8TFBVO0YTgDfio8Hly+AG6tWUh+XSco9JZnIUVLIHfnsQCiBw82itZhhSQ1v8NMCHy6TlMwgEfTaAoGOdfoxuX3hxe9LESiaK/cLRyByJLESWcD+TW1FDc2Uu314tU0dCGQaQ7aViS5S8H2lOZxb/MChd5yDHZFISVKpX9MLLnxCQyJd5hDiDaYou0ARZJ7xVMFrSttJqGYojWJOEzRmkQcpmhNIg5TtCYRhylak4jDFK1JxGGK1iTiMEVrEnGYojWJOEzRmkQcpmhNIg5TtCYRhylak4jDFK1JxGGK1iTiMEVrEnGYojWJOEzRmkQcpmhNIg5TtCYRhylak4jDFK1JxGGK1iTiMEUbhiKDIkvIUvPGGV/G/ge6EM1bMglBUG/eQsnk35iibYMuBEPi45mdmcENfdIZn5LMsIQ4smJiSLOrJEbZiLNZUS0KVlnG2vIiENGyO2Lrv3CkNqkVv67j0zSaggHq/X7q/D4qvZ7mTewaXOTX1bKrspJ/lpVzwtlgbHhnYu7l1Slt7+bWds6jaQSFjjeo4dM0gkLg0YIEdB1PUMOv63g1DZ+mE21RGJ+SjCor+HSdgK7hbdmbq/nVo0E0wB0I4NOa303m1TT0MNHLl3ELpo6IxL28TNFeBK0yaj0CXQj8evPus607KTYGg1R4vDT4/QSEQNN1gkKg6c3dftsW+XLuDdZTIlG05vDgImgeDvwbWZJQFQW7YsFhtZJkiyLeZsPp91Pr89HoD+AJagRaWlRahNr6z6RnmKK94piivNyYojWJOEzRmkQcpmhNIg5TtJcZoQXRA350nwf8PnS/Fy3gCzczuQRM0fYUIZoTQKvDX5aRrDaUlGTUUWOInTmPfvc+xNd+9H+Zc8+3GTbpBuLSU7HZrCjoyAik1rKt9X2JLrxIw/TTdkVbccoyks2GZLUg26KQolSkGAeWtDSUhCTk6Fgkq60Lb4Eg6PdRU1WFx+PmdOEhfK5G/G4XPp8fn89PIBhA9wcQQm92irWsuF1JItFPa4q2IxQFOdqOFKUi22ORY2KQo6JQEpOQY+OQomORLJYuBNpdBH6vB6fTSaOzDlddLf7GBhrr63HW19Lk8eBzudBpflHJlcAU7SXyZYtWBmpsUYj0TNL7D8CelAQ2FdliAUkJN78iCKHh8/tpamzA19iAu/gkJcePUlxdc0WEG4mivfL9TyQhSZRUVrB913b+sf4lNr7zFofy9lNXUx1uecUQznqkkpOohw8Se2APKeVlpMhy6BLcVY7Z0rZBliT2VlVT0tgIgNA1dC0IQHRKChlZA8geNJiM7H5E2WNQFAVJUS5iKVYgdB10HeHzEKwsx3+2GK2yEt3dBIAkK9Aypi1pamRvZfUVifSKxJbWFG0bwkUbjh70g9CRFAtJGVmk9s0mIyuL2Pgk7LGx2GNisdqiwosBIIJ+hMeN8HrRGhsIVlWgOWvQKqsQugaApFjCi4Ep2naYom3DhUTbFqFrzW8alyRs0TEkpqaRmJxMbFwiiZmZxCcmE6MoCGc9eoMTraEBzVmD7nIhfD6Erje7vbrhITBFG8qFr5hJh0iygqxYkGSFgMdDRUkxxw7sZd8nH7Hz3Xc48P47VG3fgnvPDjwH9+E/cRStshLh84EkISn/7v5NeoZ51S4HkoQkK0hys4jdjQ3UlpcSqK4Cr7fZRpab0xVoLa82TNEaXMZVKUkKTZcBIfTLd3wRztUrWiFA0xAtkytZtSMnJ0FsTPPMvrcgBHZHLPFpCViioxEBP3rQ0zx5u0pF3OtEK4IgmifTlx9dh6APtCBSdDS2AQOJnjyVuIV3kPDd/0Pyo7/ANnpcs5eglyC0INnX3cCC3zzH9EeXMvq2xQycOpXU4SNR7HZ0fxOarwmhN7vmLje9sYXvVd6DoN/P4ffeZteaFXhcDShRMSH5PfYeCIHQAhDwIUVFY8nuhzpgKFLfbCxZ/YhK7YOSnIoc6zCKbH7yfzn85qsoNjWkqp4ggIQoGxNTU4i3WC9pXUAEA8TMXUDy9x8FQNM0PPV1eOpqqDt3htpThdSePkXl8UJqjx1Cc/tQHNEoVrVbQ5OuvAfC78aSmErMNx8gdtqNKFZruMmXQq8SLYDf48Z55hT5777Jwb+uRbbZUWx26KZohaZBwAsIlLRM1DHXYhs+kqghucixDuQoFWxRSBbLvyOt2tDbRRuSJwRaIEDQ5yXgceOtr+N8wQFK9n1KxeF8XEUFYIlGUR3InfiAOxKt0DRAED1nPva5C7H37dd83XoJvU60bXGWnWXLr35OyT+3IMc70CW5nWiFpiFJMmheUKxEjRyLOul61JGjseUMDq/ygkSSaLvC7XbTcLaYU5/toOjjzVTv34+uNyLZ40C2GiLWEM2ijYkBXUMEvdivn0nitx7CkpEdXm2voFeLFkAPBig9nE/eyy9Q9vlB0n1+JvbrB6qK7HCgpGVgGz6KqGEjsWXlIEe37+Z6wldFtOH43U1UFZ3gzJ4dVJ84Tl3REbyNTXjdbq6JiWFQ30yiRoxBnbeQ6OGjkC29YyjQEb1etK0EvB7O5e+ndvvHDBk2EmvOQKyZ2ViSkkG+fBFYX1XRtkXoOo3VldSUFFNdeIiY6ipyps/GPmIMUi9Z9eqKiBFtK8FgEIul4/HZ5eBqEG04V/qaXm56ncvrQkTSxY0UIu2aRpxoTUxM0ZpEHKZoTSIOU7QmEYcpWpOIwxStScRhitYk4jBFaxJxmKI1iThM0YZhi43BX1aFrgXCs75whKYh3C6U+ITwrKuaiIs9+CIoPVzA5uU/pfZIHkp0UvPGGT3gkmMPdB0R9GIbOpLE7/2IqEHDwy2uakzRdoLf3cSRTRs49OrfqC87T9DfBLKtw8DxcC5KtEI0bwRij8aa2ZfYW24nesINSJ1s/nE1Y4r2Anic9RzfupkTG9+gvLAIf30dimrv8lGWHom25ZEgOS4Bdegw1OumYR8/BcURH25p0oIp2m7iqizn3L7POLllIyWfbiXoDyJbOw5f7K5ohRZEVlXUcROwXzcVddR4lDhTrBfCFG0PELqO21nHubw95L32EiXvvY8tMw1ZCY3yv5BomydYTuxTZ+NYcBu2/kNR4hwgmfPi7mCK9hIoPVzA5mWPUXP4AJbYFGPC1qlodR3h92AbNpLEhx42J1gXiSnaSyTo83L8k4/If+U5aopLCHrdIFtJUNVm0SoWhNCRVDvWrCxib7mT6PFTzAnWJWCK9jLhdtZz4uNNHN/0OhUnion1NjIxvQ8JyWnYBg9BnTyd6AnXmxOsy0CPRdvU1ER1dTV6y1aViYmJxMebP0Qrzooyzu7dRe2n28hJTiZl0lTU0V+NCdbp06cpLCykqqoKt9tNbGwsqampZGdnM3DgQGw2W3iRC1JbW0tlZSVCCJKSkkhLS7ugW7HHov373//Os88+i8fjAeBb3/oWDz/8cMQ9Z3Ql0XUNn8uJRVawxjoiektPr9fLtm3bWLduHcXFxbhcLrxeL5qmYbFYUFWV6OhosrOzWbx4MYsWLSK2g91qwtm7dy9Lly416gOw2WxERUXxP//zP9x4442oasfeGUQP8Hq94q677hKqqhrptttuE6dPnw43NfkK4HK5xE9+8hMRHR0d8pt3lqKjo8WiRYuE2+0Or8rA7XaLFStWiNTU1Hbl29azYMECcf78+fDiQgghetTS7t+/n//8z/+koKCA1NRUqqqqSExMZN26ddxyyy0XbNZNIgdN01i+fDmrVq0CID4+noyMDKZOnUpOTg5RUVH4fD7Onz/Pv/71L8rKyqivrwdgzpw5vPjiiyQlJYXU6fV6eeaZZ/jlL38JQGpqKpMnT2b27NkoisKxY8f48MMPOXnyJAC33347q1atom/fviH1dLulDQQC4ve//71xh/zlL38R6enpQlVV8fDDDwuXyxVexCSC2bNnj9HyDR06VDz99NOiqqoq3EwIIURtba1Yu3atyM3NNcr8+Mc/FsFgMMQuPz9fDBkyRKiqKoYPHy5ef/31kHwhhPj888/FvHnzjHr++Mc/ikAgEGLTbdGWlpaKb37zm0JVVZGQkCCqqqrEnXfeKVRVFf379xcnTpwIL2ISwbT+1snJyeLJJ58UjY2N4SYheL1esW7dOpGVlSVUVRUDBgwQBQUFITZPPPGEIcannnqqnRhb2b9/v8jJyRGqqopbbrlFNDQ0hOR3e4ZQVFTEli1bAFi0aBGJiYnMmzcPgPLycjZt2hRWwiRScTqdfPLJJwBkZWUxdepUYmJCt10NJyoqioULF5KTkwMtG+AdOHDAyPd4PDz//PMADB48mOnTp3c6ec/JyWHUqFEAHD58mIaGhpD8jkuFEQgE2LFjBy6XC4A77rgDRVEYN24cWVlZnDt3jnXr1rFkyZLwoiGcPn2ayspKZFlmxIgRxMTE4Ha72bJlC1u3bqWxsZGkpCTmz5/P1KlT27lQCgoKeOONNygtLcVmszF69Ghuu+02+vTpE2LXEWVlZezfv59t27bhdDrRNI2YmBgGDRrEnDlzyM3NDS+C3++nuLjYGKt1F1mW6dOnD9nZ7Xcd9Hg87Nu3j7fffhuXy4Usy2RmZjJ79mymTZvW6bzA7XZTXFxMY2MjUVFRXHPNNQBUV1fz/vvvs2fPHvx+P8nJycyYMYMZM2YQHX1x+3IFAgFjRt/Z8XRERkYGAwcOJC8vD7/fz7lz54w8u93Ohx9+yIEDB1AUhQEDBoSUbYssy4bnwOVy4fOFvcU9pN3thNraWjFp0iRjLNI6q6uurhbf//73jSb/3XffDS8awqOPPiocDodITk4WBw8eFBs2bBBjxowxyrdNkydPFmfOnBGapomTJ0+Ke+65R8TGxrazU1VVrFu3Tni93vCvE4FAQOTl5YkHHnhAJCYmtivXNk2bNk3s3LkzpMsqLS0Vt956azvbC6XU1FTx9NNPhxxLbW2teOGFF8TIkSPb2bemlJQU8fLLL4v6+vqQskIIcebMGeNYRowYIerr68WqVatEZmZmu3pUVRUjR44UGzZsEH6/P7yqC+LxeIzfOyUlRaxevbpLj0BbPB6P0HU9/OMeUVxcLMaOHSvUFh2EXw/ll61TuS7Ytm0bzzzzDAD33Xcf8+fPx2azoaoq5eXl7Ny5E7/fT1lZGXfffXenzf62bdvYt2+f4Uj+7W9/S3l5OWPGjGHUqFFkZWXh9XppamqivLycXbt2MWzYMJ544gnef/99hgwZwrXXXkv//v2xWCy4XC50Xefjjz9m7NixDBs2zPguIQSfffYZjzzyCB9++CHBYJBx48Yxbtw4Ro0axZAhQ8jIyKCxsRGPx0NpaSkFBQVMmTKF9PR0aGlpDx06RCAQICMjo8OUnZ1NTk4Ouq7T2PL+sbi4OG6//Xaji3O5XDz++OOsWLGCuro64uPjmTx5MmPGjGHYsGEkJSVRW1tLU1MTW7duxe/3k5ubG+LvdLlcbNy4kZMnTzJkyBDKy8tZsWIFdrudsWPHkpubS3Z2NoFAgIaGBurq6nj99dcZPXo0I0aMMOrpDhaLhaamJj7++GOjt9E0DYfDQUxMTLsesC2WTjar7i51dXX89re/ZePGjQA8+OCDzJw5E0VpE4gfIuFOmDlzplBVVaSnp4t33nlHaJpm5OXn54spU6YItWXQvnv37pCybVm6dKmIj48XdrtdZGRkiOHDh4uVK1eKgwcPinPnzomioiLx/PPPG7PQmJgYMWnSJJGWlib+4z/+Q3zyySfi3LlzoqSkRGzZskXceuutwuFwCLvdLm699VbR1NRkfJfP5xOzZs0yWp6HH35Y5OXliYqKCuFyuURdXZ0oKioS69evF5MnTzbsVq1aFVJHYWGh2L9/vzhw4ECHKT8/X2zcuFHMmDFD2O12oaqqeOSRR0R1dbVRz5IlS4z6J06cKNauXStOnTolampqRG1trTh8+LB49tlnjVYzPT1drF69OmQC0ral7du3r4iPjxeTJ08Wf/7zn8WRI0dEWVmZKC4uFm+88Ya44YYbjO+bPn26cDqdRj3dpaamRnzta18z6lFVVcyYMUP84Ac/EM8++6zYuXOnOH/+/CW3qpqmiaqqKnHy5Enx2muviQceeMD4vvnz54ujR4+GF7mw96CwsNCoZMGCBe28BF6vV3zve98TMTExIiYmRjz00EOddkmtolVVVWRmZoo1a9aECE20dC//9V//JRwOh/G99957r6ioqAi5QLqui+3bt4sBAwYIVVXFuHHjxJEjR4z8ti6bb37zm6K0tNTIa4uu6+Kdd94xbG+55ZZwky6pqakRjz76qEhOThaqqoq77rpLVFZWGvn79u0zhjW5ubni7bffFj6fL6QOIYTw+/1i06ZNxnFkZ2eL/Px8I7+taFVVFYMHDxY7duxod62DwaDYvHmzGDp0qGG3f//+EJvucvjw4XaLSXa7XaSlpYmRI0eKSZMmiVmzZok1a9aIw4cPtzuW7tDa6E2YMEHk5OQIu90uEhMTxSOPPCKOHz8e0kC2ckHvwfr1643/5+bm0q9fv5D81lljXFwcmqaRn59PUVFRiE1H9O/fnzvuuKPdZEFVVW6++WYSEpof5svOzubee+9ttyYtSRLjx4/H4Wh+yYfX66WmpsbIP3r0KMOHN4f+3XTTTWRkZBh5bZEkiQEDBpCamgotXpLuIoTgueeeY926dTQ1NTFmzBhefvlloy6AP/zhDwSDQRRFYdasWSxYsKDD7tVqtTJv3jx+9rOfAVBVVcXmzZvpbO3nrrvu4vrrr8ca9vIORVGYNGkSKSkp0DLxO336dIhNdxkxYgTr1q1j5cqVRn1CCFwuF6dOnaKgoIDdu3ezdOlSrr/+eubPn88HH3yApnX/9URlZWXk5eVx6NAhKioqjPPVdR2Px9Ph+Xcp2traWl588UUA+vXrx+zZszu84NOmTTPGgadOnWLz5s3oXbyLS5IksrOzyczMDM+CljFh6xgmMTExZKzaFrvdHjLWaXuC3/72t8nLy8PlcrF48WLj83ACgeanbrOysqDlR+4OgUCA9evXs2zZMjRNIysri+eeey5ERDU1NRQUFACQnp7OokWLiIrqPCRRkiRuuukmo45du3Z1eh3nzp3b6dgxOjqarKwsJElC0zSamprfbN5TWgOifvSjH1FQUMCGDRtYvHgxgwcPJjMzk4SEBCRJIhgM4vP52L17N3fccQcPPvgg58+fD6+uQwKBAEuWLOF3v/sdjz32GLm5udhsNp577jmmT5/O73//+3a/SZei/eCDDwwfWXp6OsOHD6e+vr5dkmWZuXPnAtDY2MjevXupqqoKq+3fKIrC4MGdv8Sj7WDeZrMZre7FYLVajYlhfX09586d49ixY+zYsYN3332XtWvXsmbNGk6dOgVhwu8MTdNYv3493/3ud6GlN1i1alU7t1lFRYXhOoqNje3ynFtJTU01Jk579+41bqpwWm+yjrDZbO16sEslMTGRuXPn8sILL7B9+3bWr1/PypUrufvuu5k5c2ZIA7R+/Xruu+++brXwt9xyC6tXr+bBBx/kV7/6FTt27GDZsmX069cPn8/Hf//3f/Puu++GlOl4mt/iF9y0aZMh2rNnz7JixYpwM2jxq5WUlBh/79ixg4MHDzJv3rwOWwNJkkhOTg7/uEMURenUG9Edqqur2blzJ/v27aO0tBSn04nL5aK0tJTq6mqcTmd4kS7RNI1Nmzbx+OOPA5CUlMRjjz3GTTfd1O446+vr8fubX6RnsViMoUxXREdH069fPwoKCqipqcHr9XYY7XQhUYYfy+VCkiQSEhKYMGECEyZMYPHixZSVlXHgwAE2bNjABx98gNPp5MCBA6xdu5Zly5Z12buEo6oq999/P42Njfzyl78kGAzy61//OqSX6rSlPXr0KCdOnDC6p/Lycl555ZUO00svvcT27duNshUVFezevbtds96KJEndvqg9sW2LEIIDBw7w0EMP8eMf/5innnqKV155hffff5/t27dTVFSE0+lk4cKF/PznP2fo0KHhVXTI3r17efLJJ6msrESSJJYsWcLixYux25vfddYWt9ttjO8kSQp123SCLMvtxqkdIfeScEer1Uq/fv1YtGgRK1eu5Dvf+Q5Wq9UYLrT2YD0hKiqKuXPnMnbsWACOHz/O8ePHjfwOz1zTNLZt20ZhYSG03LXXXnvtBVNbf+Crr75KbW1tm1q/WGpqarjxxhvZvHkzZWVlaJrGnDlzePTRR3nppZf47LPPKC0t5cUXX+Tuu+/uVgzo2bNnWb58OXl5eei6zj333MNjjz3WaQvqcDiMG07XdaPV7YpgMGj4e78M6uvrefLJJ7n11lsZPXo0n376abhJh0iSRGpqKkuXLjVu4Pr6+i6HiV2RkZHBoEGDjL/b1tOhaCsrK9m3b5+xfPbcc8+xc+fOC6atW7caTzGcOXOGXbt2hdX8xaDrOo888ggejwdZlpk9ezZ79uzhvffe49e//jV33HEHY8aMITExEVVV8fl8lJeXG2U7wuVysWLFCrZu3QrArFmz+NOf/tRlq+hwOIz8YDDYbg29I9xutzHU6tevX6c3xJVCURQ2b97M5s2bqaqq4vDhw+EmXRIfH28MCevr66msrIQ2c53XXnuNffv2XdDDIMtySG/SdpjZTrRCCI4fP24ILikpiQULFoSbdUh0dHRI/MHatWs7nUhcSerr63nzzTehZZL02GOPMXr06HAzg/r6ekpLS6ET74HT6WTZsmWGJ+Waa67hqaeeCjdrR9++fQ3ROZ1Ow5PQFWVlZcYE5tprr+1wTnAlcTgc9O/fH1mWcTqdbNy4sUexF06n05jMxsfHG66yAwcOMH36dL7zne+wZs0aqqurw0qGUldXR0VFhfF3WzdiO9EGAgF27txptDzf+MY3uj17t1gsTJs2jbS0NAB2797NwYMHw82uOG2HJZmZmYY7riN0XQ8Zj4d34Q0NDaxcuZI//OEP0OKrXrFiRbc8AfHx8UydOhVabowtW7ZcUAB/+9vfjGO44YYbvnDRAtx7771GD7F3715efvnlbg1ZgsEgf/vb3wyPSdsu/pprrjF85bt27eLYsWOdemo0TePgwYPk5+dDS4/TNsCmnWg9Hg//+Mc/jL/vvPPOkPyukCSJIUOGMGXKFOOzJ598MsTmi6DtpKikpKRLn+GHH37IunXrjL/bijYQCLBu3TojpK5v37488cQTTJ06tVuTKoDvfve7SJKE3+/n7bff5s0332x3Y7Ty5z//mbfeegtaHPszZsz4UkQ7depUbr75ZmgZKq5evZpf/epXRkPWEU6nk7Vr1/L000/j9/uJjY3l5ptvNlxhcXFx3H333QCcP3+eP/7xjx32agCFhYX85je/MRqfn/zkJ6GhkeFLZB999JHxTNBNN93UabR6Z+i6LlavXm0s+6Wmpopjx44J0WYZNy4uTqxZsya8qMFnn31mLM/OnDlTeDyecBODcePGCbUl8mnbtm1CtBzD/PnzjWXHefPmhSyJCiFEZWWlWL58uUhKSgpZplRV1bB56623jKBmu90uVqxYIfbt2yc+/vhjsWHDBvHOO+90mrZt2yacTqfQdV389a9/NepOSEgQv/jFL4zIJb/fL86cOSOWLFkiEhIShNoSw/GnP/0pZAkzfBm3s2XpVr73ve8Ju90u+vTpI1588cXw7AvidrvFjBkzjO9zOBwiLS1NzJkzR7z44ovio48+Ejt37hQbNmwQP//5z0V6erqxRK+2LGeHL1efPn3aiOqLiYkR06dPDwkLaGpqEu+9955ISUkx4jjuvffedrETIaLVNE3cc889xhevWrWqw5C/C7Fv3z4jtM3hcIjly5cLTdO+MNEKIUReXp7o27evcS6qqoq5c+eKb3zjG2L+/PkiIyNDqKoqsrKyxA9/+EPxgx/8wLDLz88XwWBQPPPMMyHle5JuvvlmUVRUZBzPL37xC5Genm78GGpL2N2UKVNEWlqa8VlWVpb42c9+1u5JgZ6K9sEHH7wk0QohxKlTp8TChQtFampqyHF3ldLT08XXv/71dscvWvS1adMmMXLkSCMew+FwiIkTJ4r58+eLPn36GPXEx8eL22+/XZw8eTK8mtDQxMrKSp566inS09PJzMzk/vvvD3E7dJe4uDiKi4txu93Gw20zZ86ksLCQiooKUlJSmDJlCuPGjQsvCi3ujb179+JwOBg8eDALFy7s1Fe7efNmbDYbOTk53HjjjUZ3lJ6eTm5uLqWlpfj9fmNWXlhYSHV1NVlZWUyYMIHly5ezZMkSGhsbKSoqIiUlhaSkJCZOnMjx48cpKioiLS2N1NTUbqeUlBSGDx/OrFmzDG/KddddR9++fWlqakKSJOrq6igvL6e8vBxZlhk4cCATJ05k6dKl/PCHP2y3XO52u8nLy8Pr9ZKcnMz999/f5dMEO3fupLGxkYyMDKZNm9bj8ERaVsHmz59PSkoKiqJgt9txu93thjdWq5Xhw4czduxYfvrTn7Js2bIOF0QkSWLw4MFcd911uN1ugsEglZWVVFZWUlJSgtfrJTU11Qjuf/zxx+nfv394NaH7HlRXV3P06FEsFgt2u51BgwZdtMuluLjYCICwWq0MGTKE6upqwynft2/fDiP7aZk5FhYWIoTAbrczevToTseQ+/fvx+/3ExUVxcCBA0MmjZqmcf78efbv309JSQlutxubzUZ8fDyjRo0iNzeXuLg4aLlRWuNGrVYr48eP59y5c5w5c6bHjnwhhLFs23blStd1SktLOXr0KAUFBei6jqZpJCQkMHLkSMaOHdvpxicej4cTJ07Q2NhIMBhk8uTJ7YTdliNHjuB0OlEUhezs7E4DhrqDpmnU19dTXFxMQUEBtbW1aJqGpmlGXPX48eMZMmQISUlJ3bpeTqeTQ4cOsXv3bnRdJxAIYLPZ6N+/P2PGjGHgwIGduhN79Ah5pKNpWqfi/zJoGZ5160fubei6jq7rnfaAPUEIYfw23Zl4XlWiNflq8P8B4E6AMs0x0jEAAAAASUVORK5CYII=;" vertex="1" parent="1">
          <mxGeometry x="250" y="223.61" width="20" height="17.23" as="geometry" />
        </mxCell>
        <mxCell id="cHiBQgeAXn98yEnolh68-21" value="" style="shape=image;verticalLabelPosition=bottom;labelBackgroundColor=default;verticalAlign=top;aspect=fixed;imageAspect=0;image=data:image/png,iVBORw0KGgoAAAANSUhEUgAAAGIAAABuCAYAAADcZ8Z1AAAAAXNSR0IArs4c6QAAAARnQU1BAACxjwv8YQUAAAAJcEhZcwAADsMAAA7DAcdvqGQAACcoSURBVHhe7b1pjGXned/5e7dzzr23blV1Ve/7TrK5tSiuliiboiXbkhzZI1tx7NjRxBk4HgziOBgghjMIgiAwkg+BHQyMUWYcOB7EHgezIDEkx9LYiiiPzJ0UxU3s5tL7Ut1VXctdzjnv8syHc7tJtrrJLnaR3S3zXzi4ty7uec+55/8uz/Y+jxIR4UNcc+iLP/gQ1wYfEnGd4EMirhPckES8dVX7QVng1I20WEtsHnxMAkahdMOEjRAlNv9oi1JcOG4U3FBERAFJCWs0SCSFQJKIdQZQo+P8e24oJm4oIoahJLc5CpCQ0MqASiQdqaqIFoVIIHcaZbMRKTcGbigiIhEwCHDuXODQGycY1jXaaZzOmJ4cZ+vWcYz2IILR2cVNXLe4oYgYlgNs3uaNoz3+9OuPcfjoHJ3xKRBFrGrGO4Z7Prqde+7dTje36BtIFrnGRAgiAkojAjFFtNFoZCQPNbeWosJowytHF3juuQO8/NoJfGqh7Tg+KCQErDGQSqKfY9v2Vdx3xy727tpIuwUQUGSQND4J1qqmbQGFgnTtZ7FrTwQCo0efiKQUcdoiBGpfY12bubmK7zx7gKffWGLu7Dlc1kFhiQGyLCOk6uKGaSvP3l3T7N+/ie1bxrFKo2NGUlDVQ/JMo7WFZBq+/zoT0fR5gRQIdYXVGm0tKIsPiYHXHDpyjv/v0ec5eXqREkVetEE0MSoUBqUUqHhx08SoSSHSzkru3r+N++/ewuQ4qKHGFg5UIMSIMS3AXHMB65oTkVIE8RitQCxEzTAoDh2Z4YlnXuGN4wtEM04Sh7Weug6kJFibAYqUEkp//08oU4WxOSZmuFizajxw10e2ct/NWylaDmUjaEiiqH2gyIqLm/hAcU2JiD5inCJKzbCO5K5Dbwm+9o0nOfDqUUR3yNvTzC71EAFnNCklnHPEGJrPnCWmcHHTkFWUdYUKHabG1lJXA4aDc2zoVnzmsw+xa1cXNZoU1Wh6vJa4pkRIiMTkEQuzvZoXvjfDd58/zszZHnkxTlVGYkrkbU2UCiPjSBKUAiEhKaH0aHq7uO0IeZ5R+hIhooxFUFgPmj533b6FO2/fwpqJjLF2htL24iY+ULwvRKSUANC66WUCJAGlBKFGowALSeG94sUDZ/n2Uwc4MbtIchYrOSkKamTDEAmgBIVDpJG0tG4m9UbqetvlAVCikSSIimirSEm48FVRIJGxNuy7dQN3fXQv27oaiCNSLZI0KYB9q9KuIJFApFEmVxDvCxHnISKklDDaAEJIFcoYfFRUlWbm7AKPPvYcrxycI2+vJVnN0mCB3LUvbmrFUOQaHxSajBBL6jBL1vJ84aH72bVrM5kLZFZjsCCQ4qhTmaZT+RQwWqPVyk5l7wsR3nuMMaOeqyF6lHiwBUNvmF0IPPnMyzx/8DD9UjC0sbaFjzWKAMpd3OSKIaUhWhUoskZ8VRU+9skRtm2Z5r579rJj8wSOIdZqkjLo0SoiEYx5f6awFScipURKCWstIkKMEa1ACdTJ8vgzh/jWoy9QJ0dtCozNKAcVKgndsRbDwRLavn+miXK4SLs9QUoaXwWU1qTkGRufZtCbYbITuWnHJD/68N2MtRyBSF336WQFKUIKlizTl5wOrwYrToT3HmstKSVEBGMMi4PAq4fneeyJFzl5uoeYNmhDiApBkVmDSCTFiHOOcCkpaIXQTJWaGBNKKZzLCCHiU6SVF1T9RST2WLem4M7b93LzTVtYO50DNQ6NktGIuN6JuLi5Y8eO8fh3XuO5wzXBO4xqE0JEm4RLjVkb3ayiMUFICmNX9JbehuCFLDNoIyTxSLP2kqTG6BYpWKx1iKqJdY8tawwfuWs7t92ymbazpErjMrvi0u5VEFGRyEmh6R3a1MAQhSFIi6W+4bGnj/PE069SeUG5q+9CwbZp1yXokqCEWmlqZXHRMVZWxBzKwkJtsDE2BF8FBAhEZFCya8saPv/Ze1gzVWOTRikLJiBEEoYglkx9/0ARkUb7fxe8dyJSAKVIIqAUopppqT8wvPrGCR594iVmFwXsBHUdWIk1Lpc+tWthfQuipraQCJA8uAKTIsoPQdeIzhoR+SqRRLAYDDXO9rn9to3s37eN9asncE6jRCHRoBWIZkTf6NyUMObKxNyrIALQnmG5QF508THn5RdP8lfPHuLQkeNkrXGUa1HWCZdlEOuLW1g2dLVIR09TujFcVRE4R1aeZcvMIs9t2wh2kslKszThSShc/e498Z2glQJR+NBo8ImSyIBx53ng7n185Na9jOXgzEhRco3J5bz+9Nb374b3TISExmJZEzhxcpHHn3yNV189w8LAMj45SRUDtQ8oa1GS0Hy/YW7Z0B36qcalPp1qhttf+B4feekwUVec3rCbx/bv4/Wtm5nuZbgYqFyjA7xXaKWw2hKSUIeEcQ5RERUgDgds3TjOg/fvZu/OMVp5idAlhIgx5ooJOI/3TMTQC+cWSp7+zuu89MpxlkpNiAYtiqzIUUrhYyTJyCQhV0+ETwqr57jj5Ve49dkDdHvzqEKRJJAqhW9Nc3L7Ll7cs4PTq1eT7NXpI0qBIhF8bMTcKChtcFmHuq6xeDotz8Z1GffdcxM71q+iKHJY5mhg+UQIjcVTeOKF5/mrv3qV/mCSaCZZ6PcZmxxDlecIoRku2lokSUPGSDO9uLnGbvQmRi6bt/2npPnyzpNHueux7zI2exDVEgrVoQwFeM+Y6hF1yZLpUOcbePy++zm8dSOiG1/HxXjbdZqfdQkIxghKIsl78qyFEs2QIcEIKhQYsWgiEksevrfLHbffwtTUKnxdX1gfrmSduEBESmHkpjEgGqtH6wCNYTKqPoPKc+x4yVNPvMHLJ65+zk9YHBpDoiQgomglQ8+dI48d0B28HrDpxGFueeM4e19+9uImLouBCHOr1nHgtjs4tHMXZZEhYUAWJ0FXoIcgiSgFkRaOq/89VMLGdQX796/nll2rWdVtQUhoa0iSUEZTJ09CMFqT8abieokR0Zi9JI3sXLokojm3CF//i+d47cgiw9LB1Y16AKILJBUxHlyyIJpahEQHayta1Rluf/kV9n3vdbyfY8xfYlRdBlYN8VEIajXHt+/lmf176U9Ok5HRU4q+goRQILSB8kKve+8wWqFJiO+xYW2Hj923jz2715HrQEqJuq5pt9v40Ci96i1uwQtEyPkRKoEYPMrleDSLC4scOHiabz92iPmeg6JF0AEXrl77tammX2iSzpjqKZDEqW5iarFk0+lj/NCTz7P+8OsMWoG8M0a1jEtGPGQJJJEvWXx7Iy/fvpen799FGuZUcYy6KMipGC8HLGRXL+p6FSBmWMlIvs/EeM2unat58O7dTE1OkmdAENTIcvxWpfDNqQkAQUsENAv9yHOvHOa5757kxMkljJuELGfoz6GLGld33mzlPcKJxZRCZTXlhKYznGfToVPsOfoi64+cZmxhlt64wUiLNWctixNXPn1E2sTkKcIC0haW8ox2zzA/sYPX92ziwM07mB+fRIluAnS+3+29bHiVMKqFkQxFQtEnSY+J3HPrvt3sv3U3aycLnAWIoC8xIhoiIloSVS/y2HNv8BePfY9KTSBisNYw6PeYnlpFVQ9I8cqnicshGwhGFL4j6DTHvhdf4v6/epFZdZrt0iW2cs4qQdUQraOd/MVNXBa61ox7w1w3seg8axYCwzzRGmgql3Fs+0aev2svM2u3IlWHkL37gvpuEJWhVKAcLgHQLiYJXpG3E1V/Duqz/Mav/7eMtyLayNsUzrcRkSRgFQyWAo88dpD5usupcwvMz8+REFTUxNpidIFnMBI03nTMKKWIIqTRZ0bAiUYlRVCQbESnBKJR5FTZIt2yx95XT3LTdw4wPXccOkOyWNDXEJNGJ9AqYVUiLWNhMkbwViGVxpWKpAWrhPlWn8JDUVsGrWkO7trO6zs3cXrjTqI4EIuTSLAV3iZsyIlERBR69KckNT16JPKd9xBqnRPjAKVqjHUoKYg+49jJo5w+c4QXnvk2z377/2DthCPJEK1bF+73bWtEihFjhEGV+PNHXkDnm0iiWVpa5PTMHGfnFoliyPMWZT1sxDIlIILSYI1BDRLRCtGMooBFoZNgQiAmEK3oxkSlS6ZOv8rNBw6x4/BxdBoQs4xxn1OqK+/5y4WWN01Q3sDQNq+v7vkY37tpK/3JDeigKW1JMgEbLJnWtCshRWGhbUEJxUgt8r4mxoR1jcU5z/JG+hRhcX6BQ4cPcfLQCZbEM1iY5+lv/g5rxjpghsAyiFDaYJ2jriMnTp3h9Mwsw7IiSuPEN8YQYyLG2FheYyLTDqscUSlqLQQGCBVtP0WWBPqvcecLz7Dh8CkmljzjYchwDIZZTl4ZTKM4vC9I6oKxlwRE3XyW9QMLU9M8et9NHNl9MyasJw41he1htaIsIKhIXtUgllo7lGp0hJSEsipx1mGMphyWHD9xgsOHD3H2zCzj+RhL1PTn53nmm7/Dmu7Y8olg5GE2LkOUYnGxx5nZWWbn5qhrj4jCmia0pfaBqqWwwaCDRqVIUh5lBMmEscWz3Pnd17n1xddoDReRLGGVkHSkZ4WApVVZlHn/iAgjn46WZjCrESna1wx1YJi3mFu7g9f33sqRrZvoFy3MMFEXDnHC+KBERaGyBoUahf9rtFaEEDly5AhHjh5h4dw8PgTyzGGiYUk8/flzPPvIv2FNdwwxQ9RyiDDaIikhCtCqEb2UZn5hkTNnZpmdnSdGGsd+SkxFTc9Y+g7ElGh6tMvInS+e4Y4Xnqbyb5CJpltPMcg8pfUkEcQncrF0tKNaAZn+clCjUZFG0qNNoBP44Di9JrJ5oaLoKV7fMMGJTRs4sPsOTu/cSFGP0T0XmB+LBCfY0qMUZHmOrz2zs7McPXqUUydPMBiUZFkzYoCGCDyD0YhYO94lmQGaN33z704EBqMVooWQIqIEbRQpGWJILC72OTOzwPz8EnUVKESo2y2UFibnZlh78ijbjhxhw4kjeB3oxogoCAIqasRaNApXRYREaGt0uKS9YUWQh2ZUeNMEc9jUHN4ZdBkZZAprBVfWVCnRm9rA67t2cXj7bs5NTpGsIflmx4xSikG/z7Fjxzhy9Ai9Xh+tNc4aRMD7xlrRNkWzRszP88wj75UIbYHU9FredHKkJBhjMcZSDitOz8xw5swscyln3M+y5fQsNz92kOmZE9TFImOxRikHSaEkkUxqQibRzfCOTahKMIJpDPvfB536WHJqk1EaMD5ggOgMtmoWV1GaYihAhtIGA4gSKpcordD2TXxTUs3wuDA1IQTeIgUpwQrkQ81AGU5vWMvBfbs4vGsLZXsVVT9w+PBhjh49yqDXJ4SAPm/XkvNGtMbOlomjtMJgYYGn/utvs/a9rBFKNaEwFyOlRIpN9LZzGTEGqrJi/vgME1//GpMzx1g7O2C6HlDlHhWuXnMV4yh9iYueDhoxCgK4YFmYUqiqxA2FQbdDUILzgWyksCURQkpYY0cT1LsjaGFgE6YuyZJjOLaaI+vX8cjUWp7tV8ycmWkiVrR5xyZNsNQZDBcXefIv/vUlF+tLd70rgHOOvFVgrSOliDaGsfEuO7MB+18+yN7DR8AsUOc1xcXmrPcIV+W0bYazioFVnO5O8sLNu3ns3n0MzFoyP4nKO+RJsFWFJzLMoMosSjnaoREqrhRawKUmLLTQnumFM+w6+Cq8+iqnTp8i+ECe5yitvs9Xv1y8ZyKqsgQYhc1A8AHvPZVEohEmbcZ0ZZE+VPHqtVYA64Zk3mOqgrOTO/n2fQ/y1U99ij9/8JP82ac+wQt7d1NLRtHvM1ULq2tH1xts1CSB5TrssqiZHo7hQgev2gSXYzKIoTG1KK2IITb60xX4pd8J75kIpSCGQF1XxBgapU4pkusyYzXzOpFhscFRXr1PCIAZLcwWq3n0gQf4f774oxzbcxsb56YpynGOr9vCNz/xEb726Xt4ae8tnBmbYqAzpAZXRawWVHd5DysYWGhpBtrivYYSTAUmgTUWhSKEJhj6SnwO74T3TIS+EA2gMMagtCLFSKdWTKIJlJyxS5TZEKuXYTZ9BxzYu4+vfepBnr3zbvJ6NVk1ZKk7S5HO0vURa9ZycuNH+MsHPs0LH7mdU1tWs9QuCLUnDHqU5cIl17vLQaVIVi0w5gd0JWJtpGx5ahup6oqYIkorqqpqtgcsY9q7GO+ZiGYonr+wQimNUhoRj0Sh5drYYMltgVaXXqh77cS51AM0vgTnFd2Fkr4olmxNZXqkQeTg+r388d/+BZ65/0eYXbcFVCLoIUEpkhR4nZMkIakimkTdznnk7vv4xic/z7GbP878+BaGYsmMxtnIMPRZ0olh7pComagvbcNKShF1hsHiNVRaYbwiC4pMG5w2TRysM6QLu5/eG94zESuBVT1YUzlyBNNR9PLE7LhlOnkmq5xedyePfOrjfOvh+1ksNlx8+jtiTZ0xaLX45l3r+daP3sqx225nKBuxi4ZuNsE4jqmlQCaJo9ng4tM/cFxTIkpt6HUcPRfITMLVCatb9PUUj3z8o/xfP/0wh2+6l9yuo/TLMwTqMpH6Qk91OLFlJ88/cD9/8WM/zON7tjATMrJFoSoUS4VnIq7QInYVuKZEKFSjBKUaX9f0xroc2bWD3/ulv8Fzu+8iDtaSKktwA3J99uLT3xG1FZQxjPsMWxbMFKt4Zft2XnrwAQ7e/xHe2LSaRSW0MWRXKXquBK4pEZ2g6AwD7SoSKmFxzx4O/PiPMK43kBWTMGYYuiF9KTF5E6ZypQhUhLymGgPvhFaV2LSkGLitPLFtI99a30YqzVRpmXn/gs+vGNeUiNkWzOSBYBQuWFav38X4bfeybdtqOrJEqmfoimcyjLEoqy8+/R3hLIynyKphhZOaQTvQ60ZeP97j6998mhePnKQaH6evwC3D4fR+4ZoS0Y6RNbGFpDbDtoa5U3SUZ3L7BDfduZed23YQnaWXSiZ9iY4ai8NoB0oRJBFSY4AzWmN0Y7JHmk0lwwQDY/ABzhw5xWOPPMrz3/0TyugR3aXdX6TvBoz7a7ujlGtNxOUQvSezjo3r1nHz3j1sXL8WRURrIaWa4EtS8GjVEABNsHCMsdm/p8BYi1KKM2fO8Owzz/L0U09z7Oixtyd7uo5wXRJBUtRVjQKmplexbftmduzYQreTkTmFUQmjFW5EQqPZN9qtsRajDf2lJV555Xs8+cQTHDp0qHFjLnOd+SBxXRKhkqJVtLBGU/aWINasWzPFnt1b2LRpNd1OgdbN3oPcOrIsG+1D0FRlxcFXD/Lo449z4MBB6tqT5VkT2JCuvZh6OVyXRBhtiHUT6OacwTlDjCVGR7Zv28y+fTexbvU0zhpSaqYjYzSnTp7kqaee4tmnn2VxfgFGFgDnLM41cbjXK65LImKKzRRjLTEGYopkLsM6x6DfQ2vYtnUL27dsYmJ8jNmzZ3nqqad48qknOHH8xMg0rZtgaAXBR6qqvioTxPuN65IIxci+LwqtHQqD94kkFq0zENAqsnqqy9bNazly7A2OHTtMjAGXOWS0Me7NDfeNZfhqLaTvJ65LIv464kMirhN8SMR1gg+JuE5wTYkoJRIRahuZGgRMBKNyumWFV4GlHKIBIVCp4cWnw8g1pUZRJQBaNSEtMVlCstRoaiUECynT1DoSRBFFU5nIdCmMy/uXhOVKcU2JyLRGhUiVAhjFoo3M+R7zHUc7ZaztG4raYJRm7DJevvM4H0Wh1MgbqiNae/JY0ao9+bDGDCrWhQynNdFqxGhqk3hpfHm+jvcD15QIJ5CLxmYFvp2RXM0m4xkYDR5sskiRo5Wjvbg8HUDpEqdrWspQqBynW4guOKcq0BXdWNH2qon8Tv2LT//AcU2J8CoSNTgsqV+iXj7Iuv/324wvzpOyijpPMKzoxcDB6eXdqhJLImdgChayNufyjKXCkDHkY3XNJwaePILGcmv/vTv9VwrL+3UrDDFCTAlqocDSPXUG/X//KTf/z/+RVc88zSCbZWnck0tiS7U8703jY7D0Eeo4ZHW5yB1L5/jlnuYfDIQfqz3JCSfGDMts+n3BNSXCJSFXBi2GympMSzHm+7QPv8i6//g1dnz5v7Dx6dfIa0+1TIOdijUp9smkxw5Z4nOhx6+XAz7eG7IpngOZw3pP7jWVrEy4z9VgxYmw2qCSoHxEJcGnhFxqszsgwVFasKomWXCSE51m1bxifGmWNY9/k+3/y79l61e+wpryFK5upKpoChYteFNipGRQBYrUwotjyUSC6nGi0KgIf3ux4rdmB/zi0oBNqaKTBQYpUWZtxGgsYNI7CwIfBC79hK4CUSm0McTUJKayWje2n0uiyWrTyKAX3nBs2nKmAzFXTPcrNj32Cmv/16/Q/t6zZOeOUqiK1cnQCi2Uyhk3moWiRmLNxsowUWk+szTk75clD8UhW9SQtvE4E0ZJ4d681vn7uNZYcSKSbg5pElnAyIi3HEwFR9trjDG4MctY7LHm+DH2/4evctv/+XXsC8/Qq+fAWpQdB9rkEaLtM6Hm+aVa8w/nS74wWOJm3yOTkloCKS7vPj5IrDwRpvEla9dYOlNK2GUkBwHQVUXmE1HgrIssuBrJasZSn7XPvsgnf+8b3PLVx9FnjlCEmrIo0FWPnyoDv7FU8dP+LOtND0yiZw3nTMFAtSG1r4vefyks7wldAaIGbe0oZ57GmWa35XJwvCiprMLpDEOOFcdYsGAcTOWgF7jpL5/k3t//CtN/+id8bOEw/6yEX16q2TpcJMQeS05YdJba5mBytDIYtbz7+CCxwkQIEcEWOVVdobQizzPiMtNFTBnDRCmNEldphsqxYCz9vAPRggooM8/EmUPc/fiT/Przz3GfOo22cwSn6akJ6uDI6kS7SnQqj6t7xDC7rCDkDxIrTISi3rqDE7/5PzL7936Npc23MlMFVFJQJ/ooEposClDidSBoiBelCqqD0HdC2RasS4wlT8tXdOoBiG/ywqo2YAkIg1aLUGVY6ZAStKhoEVAaghFqC+JyrB3/6zM1dUuospzjD93BiV/9POHhT6JWbULwTFR9tCqZM4kqjqHTdaBJXSdYUSIEOJrVhEpoL+ToiW3MfOEzHP9HX2Lm4R/hjC1Qw5pVzlAkafLgfQhYaSIUsLafSN2cup2jaktpOsxs383Z/+Znmf+Hv8rwo/ejehD0kHiVOfd+kLCiRACIEzIfyENEGzAxkg0qjCs4e9udPPd3f44D/8Mv0duyGwkrfvkbFheeRLOE6ZH6df5vFAExypdwIRzlsmGLQoiBLAlVnjhXeFRV0i4HxKKim3La+UbinR/j3H/3i5Qf/yHSxBqICkmBqJsCTE2xk2YXEowy5yxzjW0KdESSNKUINAojiigelKIeBagJoNO17xBvuwOtFYhpjiQYBMEjWpAREU22+MvduEKbNrVS6DrSqiFlOWUxBlVOTBValZQq0l+7idm/9Xc4+aUvsXDfPejWGHk/ITjqwhK1QsWES4IRGaXmuXLYEBGJlAYCGhUVKcKC6TEWwQXFWIpUJhBXIGnW1eLCExUgxvM9PpE7ja8WQAxK5YhYvIcqRMSujJFsrhU4e98ejv3Kz/DK3/0is3fsp7OUsWg8RglWJYapIoSavLzcKLw0TruMge6wzo8x5g2LJGZzYSp2KaOmlwItiRSqpJ9dR44hoSk/BkKRWfbfsYetmydxOkCosQbywqG0wi9zG9XlkPnA+EygGE4zeOCTHP+VL/LqLz7Mdr2W2rU5py2ZKsiygv7E8sjvoBjzgZB6LOUDrEtsHyhmy7X8UbfNl9dYDqmMibKNy97MAHCt8BYiEsY2NdkkBNau7nDLTeu4c986Vo8npJ7FqZIiM9jzyQGvErqORKNRGCbPRFyxhtM//RCP/+bPs/SxjzHm1pNSiwpDXi1vRHSqir7pcbZVMeUtbpjz9bblH29p85+zLmfCJAOzinmTEc6XIriGeMti3WQUBpAUQQSjatZPC7fuGWf31nHariYM5nErlNiqdJY6VkTV51y3YkFFJmYLqg23c/Bnf5yXfuVzlLfdAqrF2WXmcFrKFEnnEFo8q3O+PN7it6Ym+U7L0lOWbixwJIKUOC4dIfJB4u1SU2pM16bIQY/M15Jotyw7tq7h1r3r2b4xo6VPN0mOlELh0OKadEJAUoKohKgEJLTSly2M5LQdVVNKFCGRKcWwZQiDQEGH6tZ9vPALn+L5L3yas/segNqB0mCE5BIxUyjriGhc8ORSI2mAVol26nKGVfxxe5x/Nd3lP090Oac6bB1EgoaB9Zg0JKemHa+zEeGMbRw0qvlEa4dSOUplGK1YNVFw85713HXHNrTMk+kKLZ5QlUQfcC7DaIe1GZnN0MaQYmg2klwCJghaNEEZkmi0gEggizXlsM/i0FOOTVPtv5v5z/84z3/hPnw2wWChhqAw0SEIUWoGscRbi26vYhgKvqEiX27X/HFbczS2mO45NpZCxFMrwUSwKhGshnQD7KF7M15IEUf7kcfGxviR+3ayY3NGO18iy2u0g9LXpDoSyoSvhRQgSSItI00oQJFlF4pFeYS6ZYiTHV754fv51i//BHOfeIB+ZxpfJ2zf00HRyiboD9q8KJP89lSH/20q4/FWxpJrgXVEIwzlOpBTL4N3JSLGSIwRpZo90eezsLRsza6tk9y1fysb1hdo1SP5Hpn2GAlo0Rjj0KM8HctBiBFrDXmeY5yl0kJPRyyrsVtv5eUvPszzf+shzty8m0F7giAdjrtx/u2E5p+sEb5qHQOzmgm1mrW+QxEVCzYxOzZyzV6HeFcizu8pOE/G+QMKJCTGCsVtN63lo7dvZtMah+IsKS6ipMZqjTIGlkmEV9IU8wsRqTwkwTrLpNfM1h4JXfr77uCVv/kwr/6NT/JHG9fwa9OBr+U5nd4YrVCwYDU1qslyVtfkdWR9lY0y719/eFci3joSzk9TKSViMGiTN5tGpGJ1V3PXbZu55ZZ1rF1bIKmiqmuUMmizvDk4NCl8MVHQPqKriK4jS3aJcWMJJqf0Bb2JDbx89+08sn4T5+ZamDDBsJ2Tm0SrrsljxBqhyoWBE/x1SgJXQgQXkQFN6UuTjc5WBlQGxoCGzatXc9dtG7nlZkfujhPKk2g8yTp03kHbHGNB1CJymVIBZmRjEqNRuQOn8SmikqE2EVSFkgqVIiYoakmYMYfJEirWoJpUoIFESbPJMdOG9IPvKlVver6URmvYtGkN93x0H9u3TmFVD8o56t5ssxNdOYSmjvSl8Paoj6Ztgaaw0nlDpLxZ4AOaqi1KNUZDaLIwN9axkbDB+e9en1ghIt4ONSor2Spg585p7rpjC9s3til0v0k9HWJjhFAfeujOY+WJUNJEcKCwKHLtGW8Lt928nv23b0bLPEb6GCLpMvrFX0esOBFCE0ajkkIlgyXDKEMUz/Tqggfu28uurW3GzDnM+5iM/UbD+0BERI/ybytpMhQqHElpBE87D+zY2uX+u7azetXVFwP5QcGKE6HPFzDSo7XYNlJXhsHRQtPC6pysMNx7xyQfv7PN+okllD+D+CGa8wqggCS0JAwJs8zyaZFIwCMknNYUaIoIrlpHnsAoz5wpWFW3GOhZcgFrND4lyhAplaK6TPD05eCDbopmqT6iBmhtMYxTaodUNbmaJ8TOqILj29fH5V1ppSHCxHiH22/ZyR37tjE9kZBwkroqGxemcSRlCMkgankJTYwytPM2EhUxKYIyDJNC6XkGep5Vt24k37OZ45VH55MsdDVKhDFpQvpbtWeNXFqquxxMBtoVSOri6xYxBJTukTHDzbvG+Z9+479noqNQ0tTceCuuLREAscnnt3lDh7vu2MTNu7ooqYhhSAhNLSybZdjW8jYcJp+YnZ2n02mqXPXrIYMwZH7VWf7VP/p7/M5v/3Pu+fI/Zvo3v8TRYNjwygJz5YDT2rO6aJNlhsN+/uJm3xHGgQ+QuUlabozMBhZ7r/F3/ubH+L3f/af8/M/8MO0cYj2Ei/IIXqL82QcHCbGJxtdN8ABKUFpzal4zM3OOU2fmqSoFpoVS7pIxesOy4vf/wx/zxhuHsbZJFxFjUxVREYmhovZLTE12+cnP/Thf/JlPsHPdBLWKDFSi6xX1C0c58ydfZfBnTzF+arGpAqwChXOkpLDSGD+jgloL/649xdfzbqPBqLcENmjB6YxyaUBmah5+aD+f/6kf5v79u3DWMuz3aRU5Wo8CI95Syf6aEpFGilZqXBsoaUrCaBPwUXNuseSNw2eZnS8RlYHqXtzEZYlQRhFDSaaG/MSnHuAXvvgZdm5bTzslqrYmEMlqj7YFS1rTqkvmDrxO7w//HPufHiXVQ+o1HfJedeVE+IhRFXt3TfPr/+BL7NuzmW6nQElEK42PEUbb1XKXo98yIV1TInwSBIVWjV3wfAkBSedQJkMo8Mlw9MQChw4fp44ToDTC6BDNsCz5gz/8I15/7SjGZChl8MGT55FN68b5hZ/7SX7y0/fSzROkPqXp4EKNQTdOpqRBa0oDuQjEmqN/+QTzv/9fGHv2EFEqLApGdS+8gd9rT/FnWRe0BhRRIsYo1o61+PznHuTnf/5TTHYTFiGUEZu1SdJYg0rvL1SxL/Qlqm5dzzh/i68dmuXk6VkWBwqXryJS0OsP+fd/8Pu88dopjM0ZlIvsuWkjP/uZO/iJh+5m48aNbzNWXi5DTZkCmbak2mO1ZbiwyMlnv0v9h1+l/suXWJcsVdswl3n+oLuBr6SCwji0eFpF4HOf/QQ/99m72bplE1mWEUK44FO5kuKxNxQRIorKw2uvz3DwtROgC7Tp8r//4Vc4duQNyuFpfuZnH+Tv/+oXmGy3cCqjrmuccxcMlpdDJRGnTOMlrH1jvpcEoeTMt57iiX/yu+w6UbJm3Vp+yxb8WdFhYfYID/7QTfzLf/FrrFtrydXYhaA4RsRfCQncaESQEmCoa5ib7zE/P2C+V/Kf/vSb+OEiP/WTD3PvR3dTFBWSLEnc2x7EO/XO83ZZJTLy1TfzZK3AIgxnZnnjK49gvvE8/9U4nlyV8WMP/RCf/fTHadsKoyowY9Q+YK1tEgu/xbv5brixiCCMlneDiGrq+KREUBEJiUwZcmdJVUA5jWgIIYzSyTlkVFrhUpDR4b1Ha9VUXkkNQZWGIgk6BHouUadEoZqwogzTbJOKIPbNOqTLIYEbjQhRiTTSsO1oCgixkUhCCLgsR6GRkb50PgHjlTyMsq5wWdYICzQm9IgiILTrRMw0fTwTVQJdIEoofQ+bGaxpkVIT8dKY41VTxmDkx7kS3BBEnEdCRg+qeW0eb1P9EQVJGneu0HTv8ynpLqSUexdSkozGhdJN/ekkTZCQYbSXQxoVWHQzfBSIaoKcm2821zt/jXe73ltxQxHxg4z/H1gzNxvUBvOEAAAAAElFTkSuQmCC;" vertex="1" parent="1">
          <mxGeometry x="540" y="357.55" width="20" height="22.45" as="geometry" />
        </mxCell>
        <mxCell id="cHiBQgeAXn98yEnolh68-23" value="stores CTI Json" style="edgeStyle=orthogonalEdgeStyle;rounded=0;orthogonalLoop=1;jettySize=auto;html=1;" edge="1" parent="1" source="cHiBQgeAXn98yEnolh68-22" target="MJClQaRJfXR5vfHBb9vm-1">
          <mxGeometry relative="1" as="geometry" />
        </mxCell>
        <mxCell id="cHiBQgeAXn98yEnolh68-22" value="Agent A" style="rounded=0;whiteSpace=wrap;html=1;fillColor=none;" vertex="1" parent="1">
          <mxGeometry x="150" y="60" width="120" height="60" as="geometry" />
        </mxCell>
      </root>
    </mxGraphModel>
  </diagram>
</mxfile>
